<svg width="118" height="118" viewBox="0 0 118 118" fill="none" xmlns="http://www.w3.org/2000/svg">
<g clip-path="url(#clip0_222_1072)">
<path d="M88.5 -0.000976562H29.5C13.2076 -0.000976562 0 13.2066 0 29.499V88.499C0 104.791 13.2076 117.999 29.5 117.999H88.5C104.792 117.999 118 104.791 118 88.499V29.499C118 13.2066 104.792 -0.000976562 88.5 -0.000976562Z" fill="url(#paint0_linear_222_1072)"/>
<path d="M42.0243 80.9541L38.9119 86.3679C37.7695 88.3381 35.2528 89.017 33.2661 87.8746C31.2959 86.7322 30.617 84.2157 31.7594 82.2288L34.0608 78.2388L34.2761 77.858C34.6735 77.2951 35.6503 76.3183 37.5873 76.5003C37.5873 76.5003 42.1735 76.997 42.5044 79.3812C42.5044 79.3978 42.5542 80.1758 42.0243 80.9541ZM86.3123 67.146H76.5773C75.915 67.0964 75.6171 66.8647 75.5177 66.7321V66.7157L65.0872 48.6693L65.0706 48.6859L64.4415 47.7918C63.4151 46.2189 61.7924 50.2256 61.7924 50.2256C59.8554 54.6957 62.074 59.762 62.8356 61.3017L77.3058 86.3845C78.4481 88.3547 80.9647 89.0334 82.9515 87.891C84.9216 86.7486 85.6004 84.2321 84.458 82.2454L80.8323 75.9706C80.7659 75.8216 80.6335 75.4077 81.3786 75.4077H86.2957C88.5805 75.4077 90.4183 73.5534 90.4183 71.2851C90.4349 69.0003 88.5971 67.146 86.3123 67.146ZM67.405 72.7586C67.405 72.7586 67.9183 75.4077 65.9151 75.4077H63.8952H29.9052C27.6204 75.4077 25.7827 73.5534 25.7827 71.2851C25.7827 69.0003 27.637 67.1626 29.9052 67.1626H39.1602C40.6502 67.0798 41.0145 66.219 41.0145 66.219L53.1005 45.2919C53.3158 44.8946 53.1336 44.5136 53.1005 44.4474L49.1104 37.5435C47.968 35.5733 48.6469 33.0402 50.6171 31.8978C52.5873 30.7554 55.1203 31.4343 56.2627 33.4045L58.1171 36.6163L59.9714 33.4211C61.1138 31.4508 63.6303 30.772 65.6169 31.9144C67.5872 33.0568 68.266 35.5733 67.1236 37.5601L50.319 66.6659C50.2528 66.8481 50.2198 67.1294 50.7661 67.1626H60.8156V67.262C60.7992 67.2454 66.6103 67.3282 67.405 72.7586Z" fill="white"/>
</g>
<defs>
<linearGradient id="paint0_linear_222_1072" x1="58.9917" y1="118.006" x2="58.9917" y2="0.0065069" gradientUnits="userSpaceOnUse">
<stop stop-color="#1D76F2"/>
<stop offset="1" stop-color="#1AC2FB"/>
</linearGradient>
<clipPath id="clip0_222_1072">
<rect width="118" height="118" fill="white" transform="translate(0 -0.000976562)"/>
</clipPath>
</defs>
</svg>
