<svg width="23" height="31" viewBox="0 0 23 31" fill="none" xmlns="http://www.w3.org/2000/svg">
<g clip-path="url(#clip0_222_587)">
<path d="M6.00085 30.2431C9.03625 30.2431 11.4998 27.985 11.4998 25.2026V20.1621H6.00085C2.96546 20.1621 0.501953 22.4203 0.501953 25.2026C0.501953 27.985 2.96546 30.2431 6.00085 30.2431Z" fill="#0ACF83"/>
<path d="M0.501953 15.1216C0.501953 12.3392 2.96546 10.0811 6.00085 10.0811H11.4998V20.1621H6.00085C2.96546 20.1621 0.501953 17.9039 0.501953 15.1216Z" fill="#A259FF"/>
<path d="M0.503906 5.04051C0.503906 2.25815 2.96741 0 6.00281 0H11.5017V10.081H6.00281C2.96741 10.081 0.503906 7.82287 0.503906 5.04051Z" fill="#F24E1E"/>
<path d="M11.5 0H16.9989C20.0343 0 22.4978 2.25815 22.4978 5.04051C22.4978 7.82287 20.0343 10.081 16.9989 10.081H11.5V0Z" fill="#FF7262"/>
<path d="M22.4978 15.1216C22.4978 17.9039 20.0343 20.1621 16.9989 20.1621C13.9635 20.1621 11.5 17.9039 11.5 15.1216C11.5 12.3392 13.9635 10.0811 16.9989 10.0811C20.0343 10.0811 22.4978 12.3392 22.4978 15.1216Z" fill="#1ABCFE"/>
</g>
<defs>
<clipPath id="clip0_222_587">
<rect width="22" height="30.243" fill="white" transform="translate(0.5)"/>
</clipPath>
</defs>
</svg>
